<?xml version="1.0"?>
<svg xmlns="http://www.w3.org/2000/svg" width="300" height="842" viewBox="0 0 300 842">
 <svg xmlns:xlink="http://www.w3.org/1999/xlink" id="blog-calendar" xml:space="preserve" height="11" viewBox="0 0 10.633 11.393" width="11" version="1.0" y="0" x="0px" enable-background="new 0 0 10.633 11.393">
  <path d="m10.633 3.416v-1.897h-1.52v-0.759c0.001-0.42-0.339-0.76-0.758-0.76-0.42 0-0.76 0.34-0.76 0.76v0.759h-4.557v-0.759c0-0.42-0.34-0.76-0.759-0.76-0.42 0-0.76 0.34-0.76 0.76v0.759h-1.519v1.897h10.633z" />
  <rect y="5.499" width="10.633" height="5.894" />
 </svg>
 <svg xmlns:xlink="http://www.w3.org/1999/xlink" id="blog-flag" xml:space="preserve" height="10" viewBox="0 0 10.634 9.874" width="11" version="1.0" y="11" x="0px" enable-background="new 0 0 10.634 9.874">
  <polygon points="10.634 9.874 5.317 7.481 0 9.874 0 0 10.634 0" />
 </svg>
 <svg xmlns:xlink="http://www.w3.org/1999/xlink" height="32" width="32" version="1.1" viewBox="0 0 32 32" id="checkmark" y="21">
  <path d="m27 4l-15 15-7-7-5 5 12 12 20-20z" fill="#444" />
 </svg>
 <svg xmlns:xlink="http://www.w3.org/1999/xlink" height="32" width="32" version="1.1" viewBox="0 0 32 32" id="cross" y="53">
  <path d="m31.708 25.708l-9.708-9.708 9.708-9.708c0.105-0.105 0.18-0.227 0.229-0.357 0.133-0.356 0.057-0.771-0.229-1.057l-4.586-4.586c-0.286-0.286-0.702-0.361-1.057-0.229-0.13 0.048-0.252 0.124-0.357 0.228l-9.708 9.708-9.708-9.708c-0.105-0.104-0.227-0.18-0.357-0.228-0.356-0.133-0.771-0.057-1.057 0.229l-4.586 4.586c-0.286 0.286-0.361 0.702-0.229 1.057 0.049 0.13 0.124 0.252 0.229 0.357l9.708 9.708-9.708 9.708c-0.104 0.105-0.18 0.227-0.229 0.357-0.133 0.355-0.057 0.771 0.229 1.057l4.586 4.586c0.286 0.286 0.702 0.361 1.057 0.229 0.13-0.049 0.252-0.124 0.357-0.229l9.708-9.708 9.708 9.708c0.105 0.105 0.227 0.18 0.357 0.229 0.356 0.133 0.771 0.057 1.057-0.229l4.586-4.586c0.286-0.286 0.362-0.702 0.229-1.057-0.049-0.13-0.124-0.252-0.229-0.357z" fill="#444" />
 </svg>
 <svg xmlns:xlink="http://www.w3.org/1999/xlink" id="form-logo-triangle" xml:space="preserve" height="71" viewBox="0 0 137 70.778" width="137" version="1.0" y="85" x="0px" enable-background="new 0 0 137 70.778">
  <path d="m137 0h-137l31.279 35.161 27.8 31.249c5.182 5.824 13.66 5.824 18.842 0l27.8-31.249 31.28-35.161z" fill="#81b3d2" />
 </svg>
 <svg xmlns:xlink="http://www.w3.org/1999/xlink" id="htmlacademy" xml:space="preserve" height="34" viewBox="0 0 26.943 34.09" width="27" version="1.0" y="156" x="0px" enable-background="new 0 0 26.943 34.09">
  <path d="m13.62 0.017l-0.148-0.017-13.472 1.412v24.661l13.472 8.017 13.43-7.99 0.042-0.026v-24.662l-13.324-1.395zm11.399 12.11l-11.524-6.793-0.001-0.104-0.087 0.05-0.088-0.056v0.109l-11.394 6.785v-8.971l11.547-1.212 11.547 1.212v8.98zm-11.614-5.34l11.518 6.713-4.479 2.64-7.093-4.221-0.013 1.415 5.904 3.513-0.86 0.507-5.031-2.992-0.013 1.415 3.827 2.275-0.782 0.523-3.032-1.787-0.013 1.413 1.852 1.091-1.8 1.081-11.356-6.751 11.371-6.835zm-11.48 8.34l11.411 6.791 0.015 1.044-7.941-4.728-0.015 1.416 7.979 4.796 0.017 1.076-7.972-4.741-0.013 1.415 8.021 4.821 0.045 0.026 8.143-4.872v-1.268l-0.011-0.148v-3.761l3.415-2.036v10.02l-11.547 6.872-11.547-6.871v-9.852z" />
 </svg>
 <svg xmlns:xlink="http://www.w3.org/1999/xlink" id="icon-burger" fill="#81b3d2" xml:space="preserve" height="69" viewBox="0 0 76.166 68.959" width="76" version="1.0" y="190" x="0px" enable-background="new 0 0 76.166 68.959">
  <path d="m71.914 46.042h-67.662c-2.338 0-4.252 1.913-4.252 4.252v3.454c0 2.338 1.914 4.252 4.252 4.252h0.956v1.037c0 5.457 4.464 9.922 9.921 9.922h45.908c5.456 0 9.921-4.465 9.921-9.922v-1.037h0.956c2.339 0 4.252-1.914 4.252-4.252v-3.454c0-2.339-1.913-4.252-4.252-4.252zm-3.956 12.995c0 3.816-3.104 6.922-6.921 6.922h-45.908c-3.816 0-6.921-3.105-6.921-6.922v-1.037h59.75v1.037zm5.208-5.289c0 0.679-0.573 1.252-1.252 1.252h-67.662c-0.679 0-1.252-0.573-1.252-1.252v-3.454c0-0.679 0.573-1.252 1.252-1.252h67.662c0.679 0 1.252 0.573 1.252 1.252v3.454z" />
  <polygon points="16.162 37.857 21.635 41.857 27.112 37.857 32.591 41.857 38.069 37.857 43.548 41.857 49.027 37.857 54.505 41.857 59.986 37.856 65.473 41.856 71.842 37.212 70.074 34.788 65.473 38.144 59.986 34.144 54.505 38.143 49.027 34.143 43.548 38.143 38.069 34.143 32.591 38.143 27.112 34.143 21.636 38.143 16.163 34.142 10.686 38.143 6.093 34.789 4.323 37.211 10.686 41.857" />
  <path d="m8.29 31.094h62.597c0.042-0.61 0.071-1.224 0.071-1.844 0-0.388-0.016-0.772-0.033-1.156-0.683-15.618-15.121-28.094-32.842-28.094-17.72 0-32.159 12.476-32.842 28.094-0.017 0.384-0.033 0.769-0.033 1.156 0 0.62 0.029 1.233 0.072 1.844h3.01zm29.793-28.094c16.031 0 29.15 11.154 29.842 25.094h-59.684c0.692-13.94 13.81-25.094 29.842-25.094z" />
  <circle cy="15.042" cx="38.083" r="2" />
  <circle cy="10.083" cx="30.083" r="2" />
  <circle cy="10.083" cx="46.083" r="2" />
 </svg>
 <svg xmlns:xlink="http://www.w3.org/1999/xlink" id="icon-calendar" xml:space="preserve" height="22" viewBox="0 0 19.875 21.916" width="20" version="1.0" y="259" x="0px" enable-background="new 0 0 19.875 21.916">
  <path d="m17.04 2h-2.081v-2h-2v2h-6.042v-2h-2v2h-2.082c-1.56 0-2.835 1.275-2.835 2.835v14.246c0 1.56 1.275 2.835 2.835 2.835h14.205c1.56 0 2.835-1.275 2.835-2.835v-14.246c0-1.56-1.275-2.835-2.835-2.835zm0.835 17.081c0 0.453-0.383 0.835-0.835 0.835h-14.205c-0.452 0-0.835-0.382-0.835-0.835v-14.246c0-0.453 0.383-0.835 0.835-0.835h14.205c0.452 0 0.835 0.382 0.835 0.835v14.246z" />
  <rect y="6.958" x="4.917" height="2" width="2" />
  <rect y="6.958" x="12.959" height="2" width="2" />
  <rect y="6.958" x="8.938" height="2" width="2" />
  <rect y="10.958" x="4.917" height="2" width="2" />
  <rect y="10.958" x="12.959" height="2" width="2" />
  <rect y="10.958" x="8.938" height="2" width="2" />
  <rect y="14.942" x="4.917" height="2" width="2" />
  <rect y="14.942" x="12.959" height="2" width="2" />
  <rect y="14.942" x="8.938" height="2" width="2" />
 </svg>
 <svg xmlns:xlink="http://www.w3.org/1999/xlink" id="icon-cross" xml:space="preserve" height="22" viewBox="0 0 22.199 22.199" width="22" version="1.0" y="281" x="0px" enable-background="new 0 0 22.199 22.199">
  <polygon points="22.199 2.804 19.396 0 11.1 8.297 2.804 0 0 2.803 8.297 11.1 0 19.396 2.803 22.199 11.1 13.902 19.396 22.199 22.199 19.396 13.903 11.1" />
 </svg>
 <svg xmlns:xlink="http://www.w3.org/1999/xlink" id="icon-facebook" xml:space="preserve" height="19" viewBox="0 0 8.672 18.944" width="9" version="1.0" y="303" x="0px" enable-background="new 0 0 8.672 18.944">
  <path d="m6.275 3.356h2.398v-3.356h-2.878c-3.139 0.181-4.255 2.387-3.847 6.114h-1.948v3.518h1.959v9.312h3.837v-9.312h2.857v-3.518h-2.866c-0.022-1.045-0.037-2.405 0.488-2.758z" />
 </svg>
 <svg xmlns:xlink="http://www.w3.org/1999/xlink" id="icon-gift" fill="#81b3d2" xml:space="preserve" height="75" viewBox="0 0 63 75.084" width="63" version="1.0" y="322" x="0px" enable-background="new 0 0 63 75.084">
  <path clip-rule="evenodd" d="m60.165 22.23h-24.407c13.603-6.815 14.688-11.115 14.188-13.52-1.145-3.916-5.605-6.938-9.849-5.341-5.484 2.063-7.028 10.262-8.513 16.19-1.894-5.998-3.726-13.649-8.011-17.525-1.242-1.125-3.049-2.237-5.676-2.003-3.965 0.352-9.652 5.317-7.344 10.849 2.217 5.313 9.539 8.67 14.354 11.35h-22.073c-1.559 0-2.834 1.276-2.834 2.835v11.185c0 1.559 1.275 2.834 2.835 2.834h0.27v35.999h56.958v-35.999h0.103c1.56 0 2.835-1.275 2.835-2.834v-11.185c-0.001-1.559-1.276-2.835-2.836-2.835zm-18.399-16.357c2.07-0.306 4.907 1.283 5.175 3.171 0.386 2.723-3.348 5.192-5.008 6.343-2.484 1.723-4.852 2.611-7.177 4.006 0.872-3.645 2.511-12.854 7.01-13.52zm-22.534 9.848c-2.19-1.467-6.444-4.378-6.342-7.678 0.11-3.552 5.655-6.491 8.68-3.839 3.797 3.331 5.625 10.972 7.01 16.357-3.199-1.519-6.23-2.753-9.348-4.84zm5.882 56.426h-19.072v-33.063h19.072v33.063zm0-36.063h-22.114v-10.854h22.114v10.854zm10.001 0v36.062h-7.063v-46.916h7.063v10.854zm22.01 36.063h-19.072v-33.063h19.072v33.063zm2.875-36.063h-21.947v-10.854h21.947v10.854z" fill-rule="evenodd" />
 </svg>
 <svg xmlns:xlink="http://www.w3.org/1999/xlink" id="icon-house" fill="#81b3d2" xml:space="preserve" height="72" viewBox="0 0 74.696 72.345" width="75" version="1.0" y="397" x="0px" enable-background="new 0 0 74.696 72.345">
  <path d="m29.503 43.845v21.5h16v-23.938h-16v2.438zm13.063 18.562h-10.125v-18.062h10.125v18.062z" />
  <path d="m72.62 39.44l2.076-2.078-9.908-9.913v-26.979h-13.814v13.162l-13.625-13.632-37.349 37.363 2.077 2.078 7.832-7.832v37.799h-3.938v2.938h63.875v-2.938h-5.059v-37.8l7.833 7.832zm-18.707-36.032h7.938v21.104l-7.938-7.94v-13.164zm7.937 65.999h-49.004v-40.736l24.502-24.502 24.502 24.502v40.736z" />
  <path d="m29.753 27.21c0 4.28 3.47 7.75 7.75 7.75s7.75-3.47 7.75-7.75-3.47-7.75-7.75-7.75-7.75 3.47-7.75 7.75zm7.75-4.969c2.745 0 4.97 2.225 4.97 4.97s-2.225 4.97-4.97 4.97c-2.745 0-4.97-2.225-4.97-4.97s2.226-4.97 4.97-4.97z" />
  <rect y="41.407" x="16.909" height="3.938" width="3" />
  <rect y="41.407" x="22.846" height="3.938" width="3" />
  <rect y="47.407" x="16.909" height="3.938" width="3" />
  <rect y="47.407" x="22.846" height="3.938" width="3" />
  <rect y="41.407" x="48.846" height="3.938" width="3" />
  <rect y="41.407" x="54.784" height="3.938" width="3" />
  <rect y="47.407" x="48.846" height="3.938" width="3" />
  <rect y="47.407" x="54.784" height="3.938" width="3" />
 </svg>
 <svg xmlns:xlink="http://www.w3.org/1999/xlink" id="icon-menu" xml:space="preserve" height="22" viewBox="0 0 22.928 21.982" width="23" version="1.0" y="469" x="0px" enable-background="new 0 0 22.928 21.982">
  <rect width="22.928" height="3.964" />
  <rect y="9.009" width="22.928" height="3.964" />
  <rect y="18.018" width="22.928" height="3.964" />
 </svg>
 <svg xmlns:xlink="http://www.w3.org/1999/xlink" id="icon-minus" xml:space="preserve" height="2" viewBox="0 0 9.917 1.917" width="10" version="1.0" y="491" x="0px" enable-background="new 0 0 9.917 1.917">
  <rect width="9.917" height="1.917" />
 </svg>
 <svg xmlns:xlink="http://www.w3.org/1999/xlink" id="icon-plus" xml:space="preserve" height="10" viewBox="0 0 9.917 9.917" width="10" version="1.0" y="493" x="0px" enable-background="new 0 0 9.917 9.917">
  <polygon points="9.917 4 5.917 4 5.917 0 4 0 4 4 0 4 0 5.917 4 5.917 4 9.917 5.917 9.917 5.917 5.917 9.917 5.917" />
 </svg>
 <svg xmlns:xlink="http://www.w3.org/1999/xlink" id="icon-twitter" xml:space="preserve" height="15" viewBox="0 0 17.5 14.663" width="18" version="1.0" y="503" x="0px" enable-background="new 0 0 17.5 14.663">
  <g id="icon-twitter-W6EeEF_1_">
   <path clip-rule="evenodd" d="m11.283 0.153c1.736-0.484 3.074 0.264 3.685 1.15 0.694-0.225 1.372-0.47 2.072-0.69-0.004 0.841-0.538 1.478-0.883 1.728 0.704 0.165 1.343-0.481 1.343-0.481-0.175 0.977-1.035 1.746-1.611 1.977-0.239 6.592-3.272 10.956-10.382 10.823h-0.46c-0.422 0-4.29-0.45-5.047-1.843 2.341 0.192 4.011-0.412 4.835-1.15-0.989-0.293-2.761-0.464-3.07-2.881 0.362 0.105 0.583 0.223 1.228 0.117-1.236-0.836-2.608-1.537-2.532-3.685 0.294 0.319 1.1 0.523 1.381 0.461-0.725-0.235-2.03-3.281-0.921-4.836 1.873 1.812 3.848 3.521 7.369 3.685 0.216-2.24 1.171-3.74 2.993-4.375z" fill-rule="evenodd" />
  </g>
 </svg>
 <svg xmlns:xlink="http://www.w3.org/1999/xlink" id="icon-youtube" xml:space="preserve" height="14" viewBox="0 0 19.979 14.015" width="20" version="1.0" y="518" x="0px" enable-background="new 0 0 19.979 14.015">
  <path d="m17.145 0h-14.31c-1.56 0-2.835 1.275-2.835 2.835v8.345c0 1.56 1.275 2.835 2.835 2.835h14.31c1.56 0 2.835-1.275 2.835-2.835v-8.345c-0.001-1.56-1.276-2.835-2.835-2.835zm-10.109 10.392v-6.769l6.769 3.384-6.769 3.385z" />
 </svg>
 <svg xmlns:xlink="http://www.w3.org/1999/xlink" id="intro-triangle" xml:space="preserve" height="14" viewBox="0 0 1202 57" width="300" version="1.1" y="532" x="0px" preserveAspectRatio="none" enable-background="new 0 0 1202 57">
  <g fill="#fff">
   <polygon points="250 23.71 0 0 0 57 250 57 601 57 250 0" />
   <polygon points="952 23.71 952 0 601 57 952 57 1202 57 1202 0" />
  </g>
 </svg>
 <svg xmlns:xlink="http://www.w3.org/1999/xlink" id="map-marker" xml:space="preserve" height="27" viewBox="0 0 27 27" width="27" version="1.1" y="546" x="0px" enable-background="new 0 0 27 27">
  <circle cy="13.5" cx="13.5" r="13.5" fill="#fff" />
  <circle cy="13.5" cx="13.5" r="8.361" fill="#81B3D3" />
 </svg>
 <svg xmlns:xlink="http://www.w3.org/1999/xlink" height="32" width="32" version="1.1" viewBox="0 0 32 32" id="minus" y="573">
  <path d="m0 13v6c0 0.552 0.448 1 1 1h30c0.552 0 1-0.448 1-1v-6c0-0.552-0.448-1-1-1h-30c-0.552 0-1 0.448-1 1z" fill="#444" />
 </svg>
 <svg xmlns:xlink="http://www.w3.org/1999/xlink" height="32" width="32" version="1.1" viewBox="0 0 32 32" id="plus" y="605">
  <path d="m31 12h-11v-11c0-0.552-0.448-1-1-1h-6c-0.552 0-1 0.448-1 1v11h-11c-0.552 0-1 0.448-1 1v6c0 0.552 0.448 1 1 1h11v11c0 0.552 0.448 1 1 1h6c0.552 0 1-0.448 1-1v-11h11c0.552 0 1-0.448 1-1v-6c0-0.552-0.448-1-1-1z" fill="#444" />
 </svg>
 <svg xmlns:xlink="http://www.w3.org/1999/xlink" id="text-becausecanyon" fill="#fff" xml:space="preserve" height="79" viewBox="0 0 293.826 79.393" width="294" version="1.0" y="637" x="0px" enable-background="new 0 0 293.826 79.393">
  <path d="m33.419 17.06c7.658-2.589 8.242-12.181 0.693-12.181-2.079 0-4.559 1.459-6.272 4.449l-10.212 17.651c-0.474 0.839-0.948 1.532-1.458 2.151-2.626-3.61-1.86-9.007 1.823-11.378l-1.532-1.933c-7.95 5.069-5.616 19.693 7.659 19.693 11.342 0.001 16.593-13.602 9.299-18.452zm-9.372 15.535c-2.261 0-4.048-0.511-5.47-1.313 0.657-0.766 1.313-1.714 1.896-2.699l6.382-11.05 1.021 0.109c8.898 1.861 5.361 14.953-3.829 14.953zm4.084-17.286l3.063-5.251c2.771-4.777 6.309-1.969 4.413 1.604-1.458 2.735-3.61 3.574-7.476 3.647z" />
  <path d="m65.499 29.321c-0.629 2.248 0.573 4.076 3.146 4.076 1.532 0 3.428-0.985 5.251-2.48 0.183 1.459 1.35 2.48 3.282 2.48 2.02 0 4.235-1.395 6.394-3.358-0.42 2.048 0.541 3.358 2.41 3.358 2.079 0 4.413-1.896 6.236-3.647-0.365 2.042 0.839 3.647 3.246 3.647 3.136 0 6.747-3.355 9.883-7.002-0.025-0.05-0.069-0.102-0.101-0.152 2.097-2.437 3.946-5.026 5.268-6.777-1.496 3.939-0.693 11.014-4.304 11.014-1.276 0-1.787-1.386-1.787-1.386l-2.371 1.24s0.693 3.063 4.157 3.063c0.365 0 0.693-0.037 1.058-0.073 0.037 0 0.073-0.036 0.109-0.036 2.786-0.368 5.55-2.064 7.943-4.224 0.058 2.495 1.995 4.333 5.145 4.333 4.303 0 8.57-3.355 11.707-7.002-0.255-0.511-0.912-1.094-1.422-1.313l-0.255 0.292c-2.735 3.172-6.236 5.689-8.898 5.689-2.334 0-3.72-1.459-1.969-4.522l0.365-0.657c2.443 1.021 7.039 0.547 9.883-4.376l0.547-0.948c2.042-3.501 0.073-6.127-3.027-6.127-3.063 0-5.507 1.605-7.111 4.376l-3.683 6.318c-0.035-0.012-0.071-0.037-0.105-0.046l-0.255 0.292c-1.386 1.641-3.063 3.1-4.558 4.121 1.203-3.61 0.948-9.153 3.282-14.004l-2.844-1.532c-1.568 2.152-4.996 7.112-8.424 11.123 0.032 0.046 0.074 0.091 0.11 0.138l-0.135 0.154c-2.735 3.172-5.397 5.689-7.075 5.689-0.838 0-1.312-0.583-0.438-2.079l8.096-14.187h-3.793l-6.747 11.779c-2.881 2.626-5.105 4.084-5.835 3.756-0.948-0.401 0-1.823 0.474-2.625l7.403-12.91h-3.793l-6.036 10.446c-0.098-0.06-0.196-0.123-0.288-0.162l-0.255 0.292c-2.735 3.172-5.397 5.689-7.075 5.689-0.838 0-1.312-0.583-0.438-2.079l6.127-10.722h-2.152c0.146-1.605-1.495-3.83-3.975-3.83-2.042 0-4.887 1.605-6.491 4.376l-3.846 6.637c-0.195-0.152-0.394-0.286-0.577-0.365l-0.255 0.292c-2.735 3.172-6.236 5.689-8.898 5.689-2.334 0-3.72-1.459-1.97-4.522l3.902-6.783c2.188-3.756 6.054-3.136 3.792 0.802l-0.547 0.948h3.1l0.547-0.948c2.042-3.501 0.073-6.127-3.027-6.127-3.063 0-5.507 1.605-7.111 4.376l-3.77 6.467c-0.118-0.077-0.236-0.147-0.347-0.195l-0.255 0.292c-2.735 3.172-6.236 5.689-8.898 5.689-2.334 0-3.72-1.459-1.97-4.522l0.365-0.657c2.443 1.021 7.039 0.547 9.883-4.376l0.547-0.948c2.042-3.501 0.073-6.127-3.027-6.127-3.063 0-5.507 1.605-7.111 4.376l-3.975 6.819c-2.371 4.048-0.328 7.768 4.157 7.768 3.341 0 6.657-2.024 9.442-4.635-0.098 2.647 1.865 4.635 5.141 4.635 3.069 0.006 6.146-1.735 8.798-4.07zm58.031-9.563c2.188-3.756 6.054-3.136 3.792 0.802l-0.547 0.948c-1.823 3.1-4.267 3.027-5.689 2.516l2.45-4.266zm-54.193 9.227l5.288-9.227c2.042-3.538 6.09-2.626 4.23 0.802l-2.954 5.179c-2.297 3.61-4.559 5.324-6.126 5.324-0.839 0-1.313-0.583-0.438-2.078zm-24.184-9.227c2.188-3.756 6.054-3.136 3.792 0.802l-0.547 0.948c-1.823 3.1-4.267 3.027-5.689 2.516l2.444-4.266z" />
  <path d="m173.74 33.397c4.304 0 8.57-3.355 11.706-7.002-0.255-0.511-0.911-1.094-1.422-1.313l-0.255 0.292c-2.735 3.172-6.236 5.689-8.898 5.689-2.334 0-3.72-1.459-1.97-4.522l0.365-0.657c2.443 1.021 7.038 0.547 9.883-4.376l0.547-0.948c2.042-3.501 0.073-6.127-3.027-6.127-3.062 0-5.506 1.605-7.111 4.376l-3.693 6.336c-0.037-0.019-0.077-0.048-0.113-0.064l-0.256 0.292c-2.734 3.172-5.396 5.689-7.074 5.689-0.839 0-1.313-0.583-0.438-2.079l5.47-9.591c1.642-2.881 0.073-4.96-2.042-4.96-1.642 0-3.392 0.912-5.288 2.881l6.054-10.54h-3.793l-10.697 18.559c-0.148-0.104-0.297-0.192-0.434-0.251l-0.256 0.292c-2.735 3.172-5.397 5.689-7.075 5.689-0.838 0-1.312-0.583-0.438-2.079l8.133-14.187h3.1l1.095-1.823h-3.137l3.574-6.2h-3.793l-3.574 6.2h-3.428l-1.094 1.823h3.464l-7.63 13.204c-1.604 2.808-0.474 5.397 2.589 5.397 1.885 0 3.941-1.216 5.962-2.975l-1.504 2.61h3.83l5.762-10.029c5.835-7.33 8.424-6.382 6.783-3.574l-4.92 8.571c-1.604 2.808-0.475 5.397 2.589 5.397 2.305 0 4.864-1.813 7.304-4.221 0.11 2.439 2.04 4.221 5.15 4.221zm3.06-13.639c2.188-3.756 6.054-3.136 3.793 0.802l-0.547 0.948c-1.824 3.1-4.268 3.027-5.689 2.516l2.45-4.266z" />
  <path d="m288.76 25.083l-0.256 0.292c-2.734 3.172-5.397 5.689-7.074 5.689-0.839 0-1.313-0.583-0.438-2.079l12.837-22.209h-3.793l-5.58 9.628c-0.656-1.058-1.896-1.97-3.464-1.97-2.043 0-4.888 1.605-6.492 4.376l-3.711 6.406c-0.08-0.047-0.162-0.101-0.237-0.133l-0.256 0.292c-2.734 3.172-5.396 5.689-7.074 5.689-0.839 0-1.313-0.583-0.438-2.079l5.47-9.591c1.642-2.881 0.073-4.96-2.042-4.96-1.642 0-3.355 0.875-5.252 2.845l1.423-2.48h-3.793l-6.062 10.487c-0.123-0.081-0.246-0.153-0.36-0.203l-0.256 0.292c-2.734 3.172-5.397 5.689-7.074 5.689-0.839 0-1.313-0.583-0.438-2.079l6.126-10.722h-2.151c0.146-1.605-1.495-3.83-3.975-3.83-2.043 0-4.888 1.605-6.492 4.376l-3.667 6.329-0.206 0.235c-2.734 3.172-5.397 5.689-7.074 5.689-0.839 0-1.313-0.583-0.438-2.079l3.792-6.637c1.313-2.298 0.693-3.647-0.547-5.142l-2.115-2.553c-0.547-0.693-0.547-1.458 0.219-2.188l-1.969-2.151c-2.152 1.933-2.334 4.084-0.985 5.835l0.329 0.438c-1.678 2.371-3.939 5.58-6.419 8.497 0.074 0.108 0.163 0.215 0.258 0.322-3.125 3.592-5.781 5.918-8.763 7.191l4.813-8.242h-3.792l-0.401 0.657c-2.006 3.537-4.304 6.054-7.258 6.054-2.589 0-3.062-2.589-0.802-6.455l1.058-1.86c0.692 0.109 1.386 0.183 2.151 0.183 13.493 0 20.021-18.052 8.133-18.052-2.079 0-4.559 1.459-6.272 4.449l-5.908 10.175c-2.225-1.167-3.392-3.282-3.392-5.397 0-1.75 0.803-3.501 2.443-4.777l-1.24-2.225c-2.698 1.933-3.901 4.522-3.901 7.075 0 3.027 1.714 5.944 4.777 7.549l-1.131 1.969c-2.662 4.595-2.188 9.701 3.173 9.701 1.604 0 2.954-0.474 4.121-1.204l-0.985 1.714c-5.142 1.568-8.314 3.646-8.314 6.491 0 3.647 5.58 4.413 8.314-0.255l2.918-4.996c3.938-1.24 7.804-3.938 11.962-8.752-0.059-0.117-0.143-0.238-0.236-0.357 1.684-1.979 3.114-3.888 5.97-7.775l0.51 0.62c0.475 0.62 0.657 1.386 0.219 2.152l-4.02 6.963c-1.605 2.808-0.475 5.397 2.589 5.397 1.907 0 3.989-1.244 6.033-3.036-0.044 1.745 1.149 3.036 3.311 3.036 1.531 0 3.428-0.985 5.251-2.48 0.183 1.459 1.35 2.48 3.282 2.48 1.816 0 3.792-1.129 5.742-2.785l-1.398 2.42h3.829l5.798-10.102c5.799-7.257 8.388-6.309 6.747-3.501l-4.92 8.571c-1.604 2.808-0.475 5.397 2.589 5.397 2.016 0 4.226-1.388 6.381-3.346-0.202 1.901 1.006 3.346 3.294 3.346 1.531 0 3.428-0.985 5.251-2.48 0.183 1.459 1.35 2.48 3.282 2.48 3.137 0 6.747-3.355 9.883-7.002-0.25-0.51-0.9-1.094-1.41-1.312zm-77.97-14.15c1.131-1.933 2.371-2.771 3.429-2.771 6.018 0 1.787 12.253-8.133 12.253h-0.766l5.47-9.482zm-8.06 28.591c-0.802 1.422-2.078 1.204-2.078 0.183 0-0.985 0.875-2.115 3.793-3.246l-1.71 3.063zm39.7-13.785c-2.298 3.61-4.559 5.324-6.127 5.324-0.839 0-1.312-0.583-0.438-2.079l5.288-9.227c2.042-3.538 6.09-2.626 4.23 0.802l-2.95 5.18zm36.7-0.219c-2.298 3.756-4.632 5.543-6.236 5.543-0.839 0-1.312-0.583-0.438-2.079l5.288-9.227c2.042-3.538 6.09-2.626 4.23 0.802h0.036l-2.88 4.961z" />
  <path d="m162.05 61.082l-0.255 0.293c-2.735 3.172-5.397 5.688-7.075 5.688-0.839 0-1.312-0.583-0.438-2.079l5.471-9.591c1.641-2.881 0.072-4.96-2.043-4.96-1.641 0-3.354 0.875-5.251 2.845l1.422-2.479h-3.793l-6.112 10.574c-0.165-0.119-0.331-0.225-0.484-0.291l-0.255 0.293c-1.714 1.859-3.83 2.771-5.726 2.808l3.574-6.163c2.297-3.976 0.182-7.731-3.392-7.731-2.917 0-5.178 1.167-7.367 4.96l-1.86 3.245-1.626 2.782c-0.117-0.076-0.234-0.146-0.343-0.193l-0.255 0.293c-3.136 3.609-5.798 5.943-8.789 7.221l10.394-17.797h-3.792l-6.71 11.67c-2.917 2.698-5.178 4.193-5.908 3.865-0.948-0.4 0-1.823 0.474-2.625l7.403-12.91h-3.793l-6.051 10.47c-0.113-0.072-0.226-0.142-0.331-0.187l-0.255 0.293c-2.735 3.172-5.397 5.688-7.075 5.688-0.838 0-1.312-0.583-0.438-2.079l5.47-9.591c1.641-2.881 0.073-4.96-2.042-4.96-1.641 0-3.355 0.875-5.251 2.845l1.422-2.479h-3.793l-6.062 10.486c-0.123-0.081-0.246-0.153-0.36-0.203l-0.255 0.293c-2.735 3.172-5.397 5.688-7.075 5.688-0.838 0-1.312-0.583-0.438-2.079l6.127-10.721h-2.152c0.146-1.605-1.495-3.83-3.975-3.83-2.042 0-4.887 1.605-6.491 4.377l-3.918 6.762c-0.259-0.235-0.558-0.417-0.831-0.49l-0.255 0.293c-2.735 3.172-6.09 5.688-9.847 5.688-2.589 0-4.157-2.589-1.896-6.455l1.058-1.86c0.693 0.109 1.386 0.184 2.151 0.184 4.048 0 8.643-2.08 11.634-7.295 1.057-1.859 1.531-3.609 1.531-5.105 0-3.428-2.225-5.652-5.032-5.652-2.079 0-4.559 1.459-6.273 4.449l-5.908 10.175c-2.225-1.167-3.392-3.282-3.392-5.397 0-1.75 0.802-3.501 2.443-4.777l-1.24-2.225c-2.699 1.934-3.902 4.521-3.902 7.075 0 3.026 1.714 5.944 4.777 7.549l-1.13 1.97c-2.662 4.595-1.094 9.7 4.267 9.7 4.241 0 7.353-1.889 9.968-4.372-0.826 2.383 0.374 4.372 3.059 4.372 1.532 0 3.428-0.985 5.251-2.479 0.183 1.459 1.35 2.479 3.282 2.479 1.816 0 3.792-1.129 5.742-2.784l-1.399 2.42h3.83l5.798-10.102c5.798-7.258 8.388-6.31 6.747-3.502l-4.91 8.568c-1.604 2.809-0.474 5.397 2.589 5.397 2.041 0 4.282-1.425 6.464-3.423-0.455 2.086 0.509 3.423 2.398 3.423 1.824 0 3.902-1.532 5.616-3.063l-2.079 3.574c-5.142 1.531-8.351 3.646-8.351 6.491 0 3.647 5.58 4.413 8.314-0.255l2.917-4.996c3.171-0.998 6.297-2.965 9.563-6.196-0.524 5.297 6.533 6.505 10.786 1.126h0.839c1.385 0 3.26-0.523 4.952-1.455l-2.549 4.41h3.83l5.798-10.102c5.798-7.258 8.388-6.31 6.747-3.502l-4.93 8.571c-1.604 2.809-0.475 5.397 2.59 5.397 3.136 0 6.746-3.354 9.883-7.002-0.25-0.51-0.91-1.094-1.42-1.313zm-94.386-14.149c1.13-1.933 2.371-2.771 3.428-2.771 1.422 0 2.079 0.948 2.079 2.334 0 3.538-4.303 9.919-10.211 9.919h-0.766l5.47-9.482zm13.355 14.806c-2.297 3.61-4.559 5.324-6.127 5.324-0.838 0-1.312-0.583-0.438-2.079l5.288-9.227c2.042-3.537 6.09-2.625 4.23 0.803l-2.953 5.179zm28.851 13.784c-0.803 1.423-2.079 1.204-2.079 0.184 0-0.985 0.912-2.115 3.829-3.246l-1.75 3.062zm25.53-14.185h-0.183c-1.24 0-2.225 1.021-2.225 2.262 0 0.474 0.146 0.911 0.365 1.275l-0.036 0.073c-1.787 3.063-6.127 2.479-3.866-1.459l2.881-4.996 1.823-3.1c2.663-4.522 6.309-2.735 4.012 1.204l-2.76 4.741z" />
  <path d="m249.96 62.396c-0.219-0.583-0.875-1.167-1.422-1.313l-0.256 0.293c-1.386 1.641-3.063 3.1-4.559 4.12 1.204-3.61 0.948-9.153 3.282-14.004l-2.845-1.532c-1.567 2.152-4.996 7.112-8.424 11.123 0.006 0.01 0.015 0.018 0.021 0.026-0.015-0.007-0.031-0.02-0.046-0.026l-0.255 0.293c-2.735 3.172-5.397 5.688-7.075 5.688-0.839 0-1.641-0.839-1.641-2.553v-1.568c2.662 0.328 5.47-1.423 7.257-4.522l1.021-1.75c3.537-6.054-2.225-8.06-6.091-4.521l5.397-9.373h-3.793l-10.816 18.766c-0.23-0.195-0.475-0.364-0.695-0.459l-0.255 0.293c-2.735 3.172-6.236 5.688-8.898 5.688-2.334 0-3.72-1.459-1.97-4.522l3.902-6.783c2.188-3.756 6.054-3.136 3.793 0.803l-0.547 0.948h3.1l0.547-0.948c2.042-3.501 0.073-6.127-3.027-6.127-3.062 0-5.507 1.605-7.111 4.377l-3.732 6.404c-0.079-0.047-0.161-0.101-0.235-0.133l-0.256 0.293c-2.734 3.172-5.396 5.688-7.074 5.688-0.839 0-1.313-0.583-0.438-2.079l8.096-14.186h-3.793l-6.746 11.779c-2.882 2.625-5.106 4.084-5.835 3.756-0.948-0.4 0-1.823 0.474-2.625l7.403-12.91h-3.793l-7.365 12.744c-0.821 0.746-1.66 1.413-2.45 1.952 1.203-3.61 0.948-9.153 3.282-14.004l-2.845-1.532c-1.568 2.152-10.32 13.75-13.749 17.761 0.328 0.474 0.876 0.948 1.423 1.313 2.151-2.48 9.372-11.779 10.722-13.566-1.495 3.938-0.693 11.014-4.304 11.014-1.276 0-1.787-1.387-1.787-1.387l-2.37 1.24s0.693 3.063 4.157 3.063c0.365 0 0.693-0.036 1.058-0.073 0.036 0 0.073-0.036 0.109-0.036 1.926-0.255 3.841-1.142 5.631-2.379-0.013 1.542 0.919 2.488 2.508 2.488 2.078 0 4.412-1.896 6.235-3.647-0.364 2.043 0.839 3.647 3.246 3.647 2.355 0 4.979-1.893 7.467-4.38 0.034 2.519 1.975 4.38 5.145 4.38 3.078 0 6.136-1.72 8.776-4.032l-2.114 3.668h3.829l4.34-7.549v3.026c0 3.245 0.62 4.887 3.683 4.887 3.137 0 6.747-3.354 9.884-7.002-0.006-0.011-0.017-0.022-0.022-0.034 0.016 0.012 0.031 0.023 0.047 0.034 2.152-2.479 4.049-5.142 5.397-6.929-1.495 3.938-0.692 11.014-4.303 11.014-1.276 0-1.787-1.387-1.787-1.387l-2.37 1.24s0.692 3.063 4.157 3.063c0.364 0 0.692-0.036 1.058-0.073 0.036 0 0.072-0.036 0.109-0.036 3.84-0.511 7.67-3.574 10.52-6.892zm-25.19-2.991l1.094-1.896c4.377-6.091 7.367-4.413 6.018-2.115l-1.823 3.136c-1.13 1.969-4.45 3.355-5.29 0.875z" />
  <path d="m249.81 64.984c-1.239 0-2.188 0.984-2.188 2.225s0.948 2.188 2.188 2.188c1.24 0 2.225-0.948 2.225-2.188s-0.99-2.225-2.23-2.225z" />
  <polygon points="249.99 63.489 253.82 63.489 265.71 42.775 261.92 42.775" />
  <path d="m5.75 6.9c0 0.293-0.057 0.587-0.169 0.879-0.113 0.294-0.282 0.559-0.507 0.796-0.226 0.237-0.502 0.428-0.829 0.575s-0.694 0.22-1.1 0.22c-0.451 0-0.885-0.084-1.302-0.253-0.417-0.17-0.772-0.412-1.065-0.728-0.249-0.293-0.44-0.643-0.575-1.049-0.136-0.406-0.203-0.834-0.203-1.285 0-0.856 0.152-1.646 0.457-2.368 0.304-0.722 0.738-1.364 1.302-1.928 0.248-0.248 0.529-0.479 0.845-0.694 0.316-0.213 0.615-0.394 0.897-0.541 0.281-0.146 0.524-0.264 0.727-0.355 0.203-0.09 0.327-0.146 0.372-0.169l1.353 1.996c-0.249 0.09-0.524 0.209-0.829 0.355-0.304 0.147-0.592 0.327-0.862 0.541-0.271 0.214-0.496 0.468-0.677 0.761-0.18 0.293-0.282 0.632-0.304 1.015 0.654 0 1.229 0.192 1.725 0.575s0.744 0.936 0.744 1.657zm7.866 0c0 0.293-0.057 0.587-0.169 0.879-0.113 0.293-0.282 0.558-0.507 0.795-0.226 0.237-0.502 0.429-0.829 0.575-0.328 0.147-0.694 0.22-1.1 0.22-0.451 0-0.885-0.084-1.302-0.253s-0.772-0.411-1.065-0.727c-0.248-0.293-0.44-0.643-0.575-1.049s-0.203-0.834-0.203-1.285c0-0.856 0.152-1.646 0.457-2.368 0.304-0.722 0.738-1.364 1.302-1.928 0.248-0.248 0.529-0.479 0.846-0.693 0.315-0.214 0.614-0.394 0.896-0.541 0.282-0.146 0.524-0.265 0.728-0.355 0.203-0.09 0.327-0.146 0.372-0.169l1.353 1.996c-0.249 0.09-0.524 0.209-0.829 0.355-0.305 0.147-0.592 0.327-0.863 0.541s-0.496 0.468-0.676 0.761c-0.181 0.293-0.282 0.631-0.305 1.015 0.654 0 1.229 0.192 1.725 0.575 0.496 0.382 0.744 0.935 0.744 1.656z" />
  <path d="m278.78 65.842c0-0.294 0.057-0.588 0.168-0.88 0.113-0.294 0.283-0.558 0.508-0.795 0.226-0.237 0.502-0.429 0.828-0.575 0.328-0.146 0.694-0.22 1.1-0.22 0.451 0 0.886 0.085 1.303 0.253 0.418 0.17 0.772 0.412 1.065 0.729 0.249 0.293 0.44 0.643 0.575 1.048 0.135 0.406 0.203 0.834 0.203 1.286 0 0.855-0.152 1.645-0.457 2.367s-0.738 1.364-1.303 1.928c-0.248 0.248-0.529 0.479-0.846 0.693-0.314 0.215-0.613 0.395-0.896 0.541-0.281 0.146-0.523 0.266-0.727 0.355s-0.326 0.146-0.372 0.17l-1.353-1.996c0.248-0.09 0.523-0.209 0.828-0.355s0.592-0.327 0.863-0.541c0.27-0.215 0.496-0.469 0.676-0.762 0.181-0.293 0.282-0.631 0.305-1.014-0.654 0-1.229-0.192-1.725-0.576-0.52-0.383-0.76-0.936-0.76-1.656zm-7.87 0c0-0.294 0.057-0.588 0.17-0.88 0.113-0.294 0.281-0.558 0.507-0.795s0.503-0.429 0.829-0.575c0.327-0.146 0.693-0.22 1.1-0.22 0.451 0 0.885 0.085 1.302 0.253 0.417 0.17 0.772 0.412 1.065 0.729 0.248 0.293 0.439 0.643 0.575 1.048 0.136 0.406 0.202 0.834 0.202 1.286 0 0.855-0.151 1.645-0.456 2.367-0.304 0.722-0.738 1.364-1.302 1.928-0.248 0.248-0.529 0.479-0.846 0.693s-0.614 0.395-0.896 0.541c-0.281 0.146-0.524 0.266-0.728 0.355s-0.327 0.146-0.372 0.17l-1.354-1.996c0.249-0.09 0.525-0.209 0.829-0.355 0.305-0.146 0.593-0.327 0.862-0.541 0.271-0.215 0.496-0.469 0.677-0.762s0.282-0.631 0.305-1.014c-0.653 0-1.229-0.192-1.726-0.576-0.49-0.383-0.74-0.936-0.74-1.656z" />
 </svg>
 <svg xmlns:xlink="http://www.w3.org/1999/xlink" id="text-sedona" fill="#fff" xml:space="preserve" height="52" viewBox="0 0 459.755 79.804" width="300" version="1.0" y="716" x="0px" enable-background="new 0 0 459.755 79.804">
  <path d="m44.468 21.737c-3.573-2.978-8.139-4.963-12.903-4.963-3.573 0-8.338 2.084-8.338 6.253 0 4.368 5.261 6.055 8.636 7.146l4.963 1.489c10.422 3.077 18.462 8.337 18.462 20.447 0 7.445-1.787 15.088-7.742 20.15-5.856 4.963-13.698 7.047-21.241 7.047-9.43 0-18.661-3.176-26.304-8.537l8.338-15.682c4.864 4.268 10.621 7.742 17.271 7.742 4.566 0 9.43-2.283 9.43-7.544 0-5.46-7.643-7.345-11.812-8.536-12.208-3.475-20.249-6.65-20.249-21.143 0-15.187 10.819-25.112 25.807-25.112 7.543 0 16.775 2.382 23.425 6.154l-7.743 15.089z" />
  <path d="m91.833 18.958v12.506h21.936v16.478h-21.937v12.902h23.127v16.478h-42.582v-74.841h42.582v16.477h-23.127z" />
  <path d="m129.42 2.481h27.594c20.844 0 38.016 16.377 38.016 37.42 0 21.042-17.271 37.42-38.016 37.42h-27.594v-74.84zm19.45 58.364h4.367c11.613 0 21.54-6.352 21.54-20.943 0-13.4-8.834-20.943-21.341-20.943h-4.566v41.886z" />
  <path d="m286.87 38.512c0 24.219-17.37 41.292-41.391 41.292s-41.391-17.072-41.391-41.292c0-22.631 19.85-38.512 41.39-38.512s41.39 15.881 41.39 38.512zm-62.53 0.099c0 12.903 9.529 22.333 21.142 22.333s21.142-9.43 21.142-22.333c0-10.323-9.528-19.752-21.142-19.752s-21.14 9.43-21.14 19.752z" />
  <path d="m297.24 2.481h19.455l35.634 45.758h0.198v-45.758h19.454v74.841h-19.454l-35.634-45.857h-0.198v45.857h-19.455v-74.841z" />
  <path d="m407.35 64.319l-5.161 13.003h-20.646l28.785-74.841h21.241l28.189 74.841h-20.74l-4.863-13.003h-26.8zm13.59-38.711h-0.199l-8.039 23.822h16.179l-7.94-23.822z" />
 </svg>
 <svg xmlns:xlink="http://www.w3.org/1999/xlink" id="text-tothegorgeous" fill="#766357" xml:space="preserve" height="29" viewBox="0 0 255.917 28.91" width="256" version="1.0" y="768" x="0px" enable-background="new 0 0 255.917 28.91">
  <path d="m63.999 14.454l-0.202 0.23c-1.353 1.468-3.023 2.188-4.521 2.217l2.822-4.866c1.814-3.138 0.144-6.104-2.678-6.104-2.304 0-4.089 0.921-5.816 3.916l-1.468 2.562-1.227 2.098-0.154 0.177c-2.159 2.505-4.261 4.491-5.586 4.491-0.662 0-1.037-0.461-0.345-1.641l6.421-11.201h2.447l0.864-1.44h-2.476l2.822-4.893h-2.995l-2.822 4.895h-2.707l-0.864 1.44h2.735l-6.018 10.423c-1.267 2.217-0.374 4.262 2.044 4.262 1.739 0 3.662-1.309 5.511-3.084-0.005 3.816 5.298 4.561 8.539 0.463h0.662c1.785 0 4.607-1.094 6.133-2.908-0.2-0.404-0.718-0.864-1.121-1.037zm-6.392 0.202h-0.144c-0.979 0-1.756 0.806-1.756 1.786 0 0.373 0.115 0.719 0.288 1.008l-0.029 0.057c-1.411 2.419-4.837 1.958-3.052-1.151l2.274-3.945 1.44-2.447c2.102-3.57 4.981-2.16 3.167 0.95l-2.188 3.742z" />
  <path d="m105.46 14.454l-0.202 0.23c-2.16 2.505-4.924 4.491-7.025 4.491-1.843 0-2.937-1.151-1.555-3.57l0.288-0.519c1.929 0.806 5.557 0.432 7.803-3.455l0.432-0.749c1.612-2.764 0.058-4.837-2.39-4.837-2.419 0-4.348 1.267-5.615 3.455l-2.906 4.985-0.173 0.198c-2.16 2.505-4.261 4.491-5.586 4.491-0.662 0-1.037-0.461-0.346-1.641l4.316-7.571c1.295-2.275 0.058-3.916-1.613-3.916-1.295 0-2.678 0.72-4.175 2.274l4.78-8.32h-2.995l-8.354 14.492-0.168 0.192c-2.159 2.505-4.261 4.491-5.586 4.491-0.662 0-1.037-0.461-0.345-1.641l6.421-11.201h2.447l0.864-1.44h-2.476l2.823-4.893h-2.995l-2.822 4.895h-2.706l-0.864 1.44h2.735l-6.018 10.423c-1.267 2.217-0.374 4.262 2.044 4.262 1.213 0 2.517-0.639 3.822-1.627l-0.771 1.338h3.023l4.549-7.917c4.607-5.788 6.651-5.039 5.355-2.822l-3.887 6.767c-1.267 2.217-0.374 4.262 2.044 4.262 1.782 0 3.757-1.375 5.647-3.217 0.144 1.865 1.653 3.217 4.054 3.217 3.397 0 6.766-2.649 9.243-5.529-0.2-0.405-0.72-0.865-1.12-1.038zm-5.706-4.204c1.728-2.965 4.78-2.476 2.995 0.634l-0.432 0.749c-1.439 2.447-3.369 2.39-4.492 1.987l1.926-3.37z" />
  <path d="m214.62 14.454l-0.201 0.23c-1.095 1.295-2.419 2.447-3.6 3.253 0.95-2.85 0.749-7.227 2.592-11.056l-2.246-1.209c-1.238 1.699-3.944 5.615-6.651 8.782l0.001 0.001-0.201 0.229c-2.159 2.505-4.261 4.491-5.586 4.491-0.662 0-1.036-0.461-0.345-1.641l6.392-11.201h-2.994l-5.327 9.3c-2.274 2.072-4.031 3.225-4.606 2.965-0.749-0.316 0-1.439 0.374-2.072l5.845-10.193h-2.994l-4.694 8.124-0.198 0.227c-1.354 1.468-3.023 2.188-4.521 2.217l2.821-4.866c1.814-3.138 0.145-6.104-2.678-6.104-2.303 0-4.088 0.921-5.815 3.916l-1.469 2.562-1.226 2.097-0.155 0.178c-2.159 2.505-4.924 4.491-7.025 4.491-1.843 0-2.938-1.151-1.555-3.57l0.288-0.519c1.929 0.806 5.557 0.432 7.803-3.455l0.432-0.749c1.612-2.764 0.058-4.837-2.39-4.837-2.419 0-4.348 1.267-5.615 3.455l-2.904 4.984-0.175 0.199c-2.476 2.851-4.606 4.692-6.968 5.7l6.709-11.459h-1.757c0-1.238-1.267-2.879-3.138-2.879-1.612 0-3.858 1.267-5.126 3.455l-2.871 4.957c-0.002-0.001-0.005-0.003-0.007-0.004l-0.201 0.23c-2.159 2.505-4.262 4.491-5.586 4.491-0.662 0-1.036-0.461-0.346-1.641l2.995-5.241c1.036-1.814 0.547-2.879-0.433-4.06l-1.67-2.016c-0.432-0.547-0.432-1.152 0.173-1.728l-1.555-1.699c-1.699 1.526-1.843 3.225-0.777 4.607l0.259 0.346c-1.324 1.872-3.109 4.405-5.067 6.709l0.001 0.001-0.2 0.229c-1.354 1.468-3.023 2.188-4.521 2.217l2.821-4.866c1.814-3.138 0.145-6.104-2.678-6.104-2.303 0-4.088 0.921-5.815 3.916l-1.469 2.562-1.228 2.101-0.152 0.174c-2.477 2.851-4.607 4.692-6.968 5.7l6.709-11.459h-1.756c0-1.238-1.267-2.879-3.139-2.879-1.612 0-3.858 1.267-5.125 3.455l-4.204 7.256c-1.267 2.217-0.374 4.262 2.044 4.262 0.835 0 1.843-0.375 2.851-1.008l-0.835 1.41c-4.031 1.238-6.565 2.879-6.565 5.125 0 2.88 4.405 3.484 6.565-0.201l2.275-3.945c2.396-0.747 4.743-2.156 7.18-4.482-0.022 3.832 5.293 4.585 8.539 0.48h0.662c1.785 0 4.607-1.094 6.133-2.908l-0.001-0.001c1.439-1.67 2.562-3.167 4.951-6.419l0.403 0.489c0.374 0.49 0.519 1.094 0.173 1.699l-3.167 5.5c-1.268 2.217-0.375 4.262 2.044 4.262 1.518 0 3.176-0.997 4.802-2.43-0.049 1.391 0.879 2.43 2.597 2.43 0.835 0 1.843-0.375 2.851-1.008l-0.835 1.41c-4.031 1.238-6.564 2.879-6.564 5.125 0 2.88 4.405 3.484 6.564-0.201l2.274-3.945c2.44-0.761 4.83-2.214 7.315-4.617 0.134 1.875 1.647 3.236 4.057 3.236 2.438 0 4.859-1.367 6.948-3.201-0.118 3.92 5.266 4.721 8.541 0.58h0.662c0.938 0 2.158-0.308 3.329-0.856-0.805 2.081-0.063 3.478 1.65 3.478 1.641 0 3.483-1.498 4.923-2.88-0.288 1.612 0.662 2.88 2.562 2.88 2.477 0 5.327-2.649 7.804-5.529l-0.001-0.001c1.698-1.958 3.195-4.059 4.261-5.469-1.181 3.109-0.548 8.695-3.398 8.695-1.008 0-1.41-1.094-1.41-1.094l-1.872 0.979s0.547 2.42 3.282 2.42c0.288 0 0.548-0.029 0.835-0.059 0.029 0 0.058-0.028 0.087-0.028 3.052-0.403 6.075-2.821 8.321-5.442-0.1-0.46-0.61-0.921-1.05-1.036zm-42.98-4.204c1.728-2.965 4.779-2.476 2.994 0.634l-0.432 0.749c-1.44 2.447-3.369 2.39-4.492 1.987l1.93-3.37zm-57.18 15.605c-0.634 1.123-1.641 0.951-1.641 0.145 0-0.777 0.72-1.67 2.994-2.562l-1.35 2.417zm1.39-6.679c-0.662 0-1.037-0.461-0.345-1.641l4.175-7.285c1.612-2.793 4.809-2.073 3.34 0.634l-2.274 3.973c-1.82 2.909-3.64 4.319-4.9 4.319zm18.39-4.52h-0.145c-0.979 0-1.756 0.806-1.756 1.786 0 0.373 0.115 0.719 0.288 1.008l-0.029 0.057c-1.41 2.419-4.837 1.958-3.052-1.151l2.274-3.945 1.439-2.447c2.103-3.57 4.981-2.16 3.168 0.95l-2.19 3.742zm18.83 11.199c-0.634 1.123-1.642 0.951-1.642 0.145 0-0.777 0.72-1.67 2.995-2.562l-1.35 2.417zm1.38-6.679c-0.662 0-1.036-0.461-0.346-1.641l4.176-7.285c1.612-2.793 4.808-2.073 3.34 0.634l-2.275 3.973c-1.81 2.909-3.62 4.319-4.89 4.319zm29.54-4.52h-0.145c-0.979 0-1.756 0.806-1.756 1.786 0 0.373 0.115 0.719 0.288 1.008l-0.029 0.057c-1.41 2.419-4.837 1.958-3.052-1.151l2.274-3.945 1.439-2.447c2.103-3.57 4.981-2.16 3.168 0.95l-2.18 3.742z" />
  <rect y="11.275" width="28.917" height="1.958" />
  <rect y="11.275" x="227" height="1.958" width="28.918" />
 </svg>
 <svg xmlns:xlink="http://www.w3.org/1999/xlink" id="text-welcome" fill="#81b3d2" xml:space="preserve" height="45" viewBox="0 0 187.663 44.918" width="188" version="1.0" y="797" x="0px" enable-background="new 0 0 187.663 44.918">
  <path d="m27.712 0h7.708l-1.21 44.918h-14.525l-1.975-18.545-1.975 18.545h-14.589l-1.146-44.918h7.645l0.637 37.152h0.828l4.778-37.152h7.581l4.905 37.152h0.765l0.573-37.152z" />
  <path d="m59.563 37.152v7.766h-20.896v-44.918h20.896v7.7h-13.251v10.844h10.575v7.7h-10.575v10.908h13.251z" />
  <path d="m80.902 37.152v7.766h-18.283v-44.918h7.645v37.152h10.638z" />
  <path d="m97.146 28.362l7.708-1.797v13.604c0 2.567-2.166 4.749-4.714 4.749h-11.468c-2.612 0-4.714-2.182-4.714-4.749v-35.42c0-2.632 2.103-4.749 4.714-4.749h11.467c2.548 0 4.714 2.117 4.714 4.749v9.112l-7.708 1.796v-7.957h-5.543v29.452h5.543v-8.79z" />
  <path d="m125.62 0c2.548 0 4.714 2.117 4.714 4.749v35.42c0 2.567-2.166 4.749-4.714 4.749h-11.468c-2.611 0-4.714-2.182-4.714-4.749v-35.42c0-2.631 2.103-4.749 4.714-4.749h11.47zm-3 7.7h-5.543v29.452h5.543v-29.452z" />
  <path d="m155.37 0h7.581v44.918h-7.645v-22.074l-3.058 11.422h-7.454l-2.994-11.422v22.074h-7.645v-44.918h7.581l6.816 21.688 6.81-21.688z" />
  <path d="m187.66 37.152v7.766h-20.896v-44.918h20.896v7.7h-13.251v10.844h10.575v7.7h-10.575v10.908h13.26z" />
 </svg>
</svg>
